<svg width="24" height="25" viewBox="0 0 24 25" fill="none" xmlns="http://www.w3.org/2000/svg">
<g id="ic:round-upload" clip-path="url(#clip0_231_254)">
<path id="Vector" d="M8.73221 18.7142H14.518C15.3135 18.7142 15.9644 18.0633 15.9644 17.2677V10.0355H18.2643C19.5516 10.0355 20.2025 8.47337 19.2912 7.56211L12.6521 0.922942C12.5182 0.788852 12.3593 0.68247 12.1843 0.609885C12.0093 0.5373 11.8218 0.499939 11.6323 0.499939C11.4429 0.499939 11.2553 0.5373 11.0803 0.609885C10.9053 0.68247 10.7464 0.788852 10.6126 0.922942L3.97342 7.56211C3.06216 8.47337 3.69859 10.0355 4.98592 10.0355H7.28577V17.2677C7.28577 18.0633 7.93666 18.7142 8.73221 18.7142ZM2.94644 21.6071H20.3037C21.0993 21.6071 21.7502 22.258 21.7502 23.0535C21.7502 23.849 21.0993 24.4999 20.3037 24.4999H2.94644C2.1509 24.4999 1.5 23.849 1.5 23.0535C1.5 22.258 2.1509 21.6071 2.94644 21.6071Z" fill="white"/>
</g>
<defs>
<clipPath id="clip0_231_254">
<rect width="24" height="24" fill="white" transform="translate(0 0.5)"/>
</clipPath>
</defs>
</svg>
