<svg width="101" height="30" viewBox="0 0 101 30" fill="none" xmlns="http://www.w3.org/2000/svg">
<path d="M11.3452 11.5653C11.277 10.8778 10.9844 10.3437 10.4673 9.96307C9.95028 9.58239 9.24858 9.39204 8.36222 9.39204C7.75994 9.39204 7.25142 9.47727 6.83665 9.64773C6.42188 9.8125 6.10369 10.0426 5.8821 10.3381C5.66619 10.6335 5.55824 10.9688 5.55824 11.3438C5.54688 11.6562 5.61222 11.929 5.75426 12.1619C5.90199 12.3949 6.10369 12.5966 6.35938 12.767C6.61506 12.9318 6.91051 13.0767 7.24574 13.2017C7.58097 13.321 7.93892 13.4233 8.3196 13.5085L9.88778 13.8835C10.6491 14.054 11.348 14.2812 11.9844 14.5653C12.6207 14.8494 13.1719 15.1989 13.6378 15.6136C14.1037 16.0284 14.4645 16.517 14.7202 17.0795C14.9815 17.642 15.1151 18.2869 15.1207 19.0142C15.1151 20.0824 14.8423 21.0085 14.3026 21.7926C13.7685 22.571 12.9957 23.1761 11.9844 23.608C10.9787 24.0341 9.76563 24.2472 8.34517 24.2472C6.93608 24.2472 5.70881 24.0312 4.66335 23.5994C3.62358 23.1676 2.81108 22.5284 2.22585 21.6818C1.64631 20.8295 1.34233 19.7756 1.31392 18.5199H4.88494C4.92472 19.1051 5.09233 19.5937 5.38778 19.9858C5.68892 20.3722 6.08949 20.6648 6.58949 20.8636C7.09517 21.0568 7.66619 21.1534 8.30256 21.1534C8.92756 21.1534 9.47017 21.0625 9.9304 20.8807C10.3963 20.6989 10.7571 20.446 11.0128 20.1222C11.2685 19.7983 11.3963 19.4261 11.3963 19.0057C11.3963 18.6136 11.2798 18.2841 11.0469 18.017C10.8196 17.75 10.4844 17.5227 10.0412 17.3352C9.60369 17.1477 9.06676 16.9773 8.4304 16.8239L6.52983 16.3466C5.05824 15.9886 3.89631 15.429 3.04403 14.6676C2.19176 13.9062 1.76847 12.8807 1.77415 11.5909C1.76847 10.5341 2.04972 9.6108 2.6179 8.82102C3.19176 8.03125 3.97869 7.41477 4.97869 6.97159C5.97869 6.52841 7.11506 6.30682 8.38778 6.30682C9.68324 6.30682 10.8139 6.52841 11.7798 6.97159C12.7514 7.41477 13.5071 8.03125 14.0469 8.82102C14.5866 9.6108 14.8651 10.5256 14.8821 11.5653H11.3452ZM21.1655 16.4318V24H17.5348V10.9091H20.995V13.2188H21.1484C21.4382 12.4574 21.924 11.8551 22.6058 11.4119C23.2876 10.9631 24.1143 10.7386 25.0859 10.7386C25.995 10.7386 26.7876 10.9375 27.4638 11.3352C28.1399 11.733 28.6655 12.3011 29.0405 13.0398C29.4155 13.7727 29.603 14.6477 29.603 15.6648V24H25.9723V16.3125C25.978 15.5114 25.7734 14.8864 25.3587 14.4375C24.9439 13.983 24.3729 13.7557 23.6456 13.7557C23.157 13.7557 22.7251 13.8608 22.3501 14.071C21.9808 14.2812 21.6911 14.5881 21.4808 14.9915C21.2763 15.3892 21.1712 15.8693 21.1655 16.4318ZM36.1974 24.2472C35.3622 24.2472 34.6179 24.1023 33.9645 23.8125C33.3111 23.517 32.794 23.0824 32.4134 22.5085C32.0384 21.929 31.8509 21.2074 31.8509 20.3438C31.8509 19.6165 31.9844 19.0057 32.2514 18.5114C32.5185 18.017 32.8821 17.6193 33.3423 17.3182C33.8026 17.017 34.3253 16.7898 34.9105 16.6364C35.5014 16.483 36.1207 16.375 36.7685 16.3125C37.5298 16.233 38.1435 16.1591 38.6094 16.0909C39.0753 16.017 39.4134 15.9091 39.6236 15.767C39.8338 15.625 39.9389 15.4148 39.9389 15.1364V15.0852C39.9389 14.5455 39.7685 14.1278 39.4276 13.8324C39.0923 13.5369 38.6151 13.3892 37.9957 13.3892C37.3423 13.3892 36.8224 13.5341 36.4361 13.8239C36.0497 14.108 35.794 14.4659 35.669 14.8977L32.3111 14.625C32.4815 13.8295 32.8168 13.142 33.3168 12.5625C33.8168 11.9773 34.4616 11.5284 35.2514 11.2159C36.0469 10.8977 36.9673 10.7386 38.0128 10.7386C38.7401 10.7386 39.4361 10.8239 40.1009 10.9943C40.7713 11.1648 41.3651 11.429 41.8821 11.7869C42.4048 12.1449 42.8168 12.6051 43.1179 13.1676C43.419 13.7244 43.5696 14.392 43.5696 15.1705V24H40.1264V22.1847H40.0241C39.8139 22.5938 39.5327 22.9545 39.1804 23.267C38.8281 23.5739 38.4048 23.8153 37.9105 23.9915C37.4162 24.1619 36.8452 24.2472 36.1974 24.2472ZM37.2372 21.7415C37.7713 21.7415 38.2429 21.6364 38.652 21.4261C39.0611 21.2102 39.3821 20.9205 39.6151 20.5568C39.848 20.1932 39.9645 19.7812 39.9645 19.321V17.9318C39.8509 18.0057 39.6946 18.0739 39.4957 18.1364C39.3026 18.1932 39.0838 18.2472 38.8395 18.2983C38.5952 18.3437 38.3509 18.3864 38.1065 18.4261C37.8622 18.4602 37.6406 18.4915 37.4418 18.5199C37.0156 18.5824 36.6435 18.6818 36.3253 18.8182C36.0071 18.9545 35.7599 19.1392 35.5838 19.3722C35.4077 19.5994 35.3196 19.8835 35.3196 20.2244C35.3196 20.7188 35.4986 21.0966 35.8565 21.358C36.2202 21.6136 36.6804 21.7415 37.2372 21.7415ZM46.4545 24V6.54545H53.3409C54.6648 6.54545 55.7926 6.7983 56.7244 7.30398C57.6563 7.80398 58.3665 8.5 58.8551 9.39204C59.3494 10.2784 59.5966 11.3011 59.5966 12.4602C59.5966 13.6193 59.3466 14.642 58.8466 15.5284C58.3466 16.4148 57.6222 17.1051 56.6733 17.5994C55.7301 18.0937 54.5881 18.3409 53.2472 18.3409H48.858V15.3835H52.6506C53.3608 15.3835 53.946 15.2614 54.4062 15.017C54.8722 14.767 55.2188 14.4233 55.446 13.9858C55.679 13.5426 55.7955 13.0341 55.7955 12.4602C55.7955 11.8807 55.679 11.375 55.446 10.9432C55.2188 10.5057 54.8722 10.1676 54.4062 9.92898C53.9403 9.68466 53.3494 9.5625 52.6335 9.5625H50.1449V24H46.4545ZM65.3068 24.2472C64.4716 24.2472 63.7273 24.1023 63.0739 23.8125C62.4205 23.517 61.9034 23.0824 61.5227 22.5085C61.1477 21.929 60.9602 21.2074 60.9602 20.3438C60.9602 19.6165 61.0938 19.0057 61.3608 18.5114C61.6278 18.017 61.9915 17.6193 62.4517 17.3182C62.9119 17.017 63.4347 16.7898 64.0199 16.6364C64.6108 16.483 65.2301 16.375 65.8778 16.3125C66.6392 16.233 67.2528 16.1591 67.7188 16.0909C68.1847 16.017 68.5227 15.9091 68.733 15.767C68.9432 15.625 69.0483 15.4148 69.0483 15.1364V15.0852C69.0483 14.5455 68.8778 14.1278 68.5369 13.8324C68.2017 13.5369 67.7244 13.3892 67.1051 13.3892C66.4517 13.3892 65.9318 13.5341 65.5455 13.8239C65.1591 14.108 64.9034 14.4659 64.7784 14.8977L61.4205 14.625C61.5909 13.8295 61.9261 13.142 62.4261 12.5625C62.9261 11.9773 63.571 11.5284 64.3608 11.2159C65.1563 10.8977 66.0767 10.7386 67.1222 10.7386C67.8494 10.7386 68.5455 10.8239 69.2102 10.9943C69.8807 11.1648 70.4744 11.429 70.9915 11.7869C71.5142 12.1449 71.9261 12.6051 72.2273 13.1676C72.5284 13.7244 72.679 14.392 72.679 15.1705V24H69.2358V22.1847H69.1335C68.9233 22.5938 68.642 22.9545 68.2898 23.267C67.9375 23.5739 67.5142 23.8153 67.0199 23.9915C66.5256 24.1619 65.9545 24.2472 65.3068 24.2472ZM66.3466 21.7415C66.8807 21.7415 67.3523 21.6364 67.7614 21.4261C68.1705 21.2102 68.4915 20.9205 68.7244 20.5568C68.9574 20.1932 69.0739 19.7812 69.0739 19.321V17.9318C68.9602 18.0057 68.804 18.0739 68.6051 18.1364C68.4119 18.1932 68.1932 18.2472 67.9489 18.2983C67.7045 18.3437 67.4602 18.3864 67.2159 18.4261C66.9716 18.4602 66.75 18.4915 66.5511 18.5199C66.125 18.5824 65.7528 18.6818 65.4347 18.8182C65.1165 18.9545 64.8693 19.1392 64.6932 19.3722C64.517 19.5994 64.429 19.8835 64.429 20.2244C64.429 20.7188 64.608 21.0966 64.9659 21.358C65.3295 21.6136 65.7898 21.7415 66.3466 21.7415ZM86.3878 14.642L83.0639 14.8466C83.0071 14.5625 82.8849 14.3068 82.6974 14.0795C82.5099 13.8466 82.2628 13.6619 81.956 13.5256C81.6548 13.3835 81.294 13.3125 80.8736 13.3125C80.3111 13.3125 79.8366 13.4318 79.4503 13.6705C79.0639 13.9034 78.8707 14.2159 78.8707 14.608C78.8707 14.9205 78.9957 15.1847 79.2457 15.4006C79.4957 15.6165 79.9247 15.7898 80.5327 15.9205L82.902 16.3977C84.1747 16.6591 85.1236 17.0795 85.7486 17.6591C86.3736 18.2386 86.6861 19 86.6861 19.9432C86.6861 20.8011 86.4332 21.554 85.9276 22.2017C85.4276 22.8494 84.7401 23.3551 83.8651 23.7188C82.9957 24.0767 81.9929 24.2557 80.8565 24.2557C79.1236 24.2557 77.7429 23.8949 76.7145 23.1733C75.6918 22.446 75.0923 21.4574 74.9162 20.2074L78.4872 20.0199C78.5952 20.5483 78.8565 20.9517 79.2713 21.2301C79.6861 21.5028 80.2173 21.6392 80.8651 21.6392C81.5014 21.6392 82.0128 21.517 82.3991 21.2727C82.7912 21.0227 82.9901 20.7017 82.9957 20.3097C82.9901 19.9801 82.8509 19.7102 82.5781 19.5C82.3054 19.2841 81.8849 19.1193 81.3168 19.0057L79.0497 18.554C77.7713 18.2983 76.8196 17.8551 76.1946 17.2244C75.5753 16.5937 75.2656 15.7898 75.2656 14.8125C75.2656 13.9716 75.4929 13.2472 75.9474 12.6392C76.4077 12.0312 77.0526 11.5625 77.8821 11.233C78.7173 10.9034 79.6946 10.7386 80.8139 10.7386C82.4673 10.7386 83.7685 11.0881 84.7173 11.7869C85.6719 12.4858 86.2287 13.4375 86.3878 14.642ZM99.8643 14.642L96.5405 14.8466C96.4837 14.5625 96.3615 14.3068 96.174 14.0795C95.9865 13.8466 95.7393 13.6619 95.4325 13.5256C95.1314 13.3835 94.7706 13.3125 94.3501 13.3125C93.7876 13.3125 93.3132 13.4318 92.9268 13.6705C92.5405 13.9034 92.3473 14.2159 92.3473 14.608C92.3473 14.9205 92.4723 15.1847 92.7223 15.4006C92.9723 15.6165 93.4013 15.7898 94.0092 15.9205L96.3786 16.3977C97.6513 16.6591 98.6001 17.0795 99.2251 17.6591C99.8501 18.2386 100.163 19 100.163 19.9432C100.163 20.8011 99.9098 21.554 99.4041 22.2017C98.9041 22.8494 98.2166 23.3551 97.3416 23.7188C96.4723 24.0767 95.4695 24.2557 94.3331 24.2557C92.6001 24.2557 91.2195 23.8949 90.1911 23.1733C89.1683 22.446 88.5689 21.4574 88.3928 20.2074L91.9638 20.0199C92.0717 20.5483 92.3331 20.9517 92.7479 21.2301C93.1626 21.5028 93.6939 21.6392 94.3416 21.6392C94.978 21.6392 95.4893 21.517 95.8757 21.2727C96.2678 21.0227 96.4666 20.7017 96.4723 20.3097C96.4666 19.9801 96.3274 19.7102 96.0547 19.5C95.782 19.2841 95.3615 19.1193 94.7933 19.0057L92.5263 18.554C91.2479 18.2983 90.2962 17.8551 89.6712 17.2244C89.0518 16.5937 88.7422 15.7898 88.7422 14.8125C88.7422 13.9716 88.9695 13.2472 89.424 12.6392C89.8842 12.0312 90.5291 11.5625 91.3587 11.233C92.1939 10.9034 93.1712 10.7386 94.2905 10.7386C95.9439 10.7386 97.245 11.0881 98.1939 11.7869C99.1484 12.4858 99.7053 13.4375 99.8643 14.642Z" fill="black"/>
</svg>
